<mxfile host="app.diagrams.net" agent="Mozilla/5.0 (Windows NT 10.0; Win64; x64) AppleWebKit/537.36 (KHTML, like Gecko) Chrome/128.0.0.0 Safari/537.36" version="24.7.13">
  <diagram name="Page-1" id="OII1Tvl9IJ2-GS37sHBM">
    <mxGraphModel dx="1044" dy="566" grid="1" gridSize="10" guides="1" tooltips="1" connect="1" arrows="1" fold="1" page="1" pageScale="1" pageWidth="850" pageHeight="1100" math="0" shadow="0">
      <root>
        <mxCell id="0" />
        <mxCell id="1" parent="0" />
        <mxCell id="pgJWZQ8p6a49kTPKWPUg-56" value="" style="edgeStyle=entityRelationEdgeStyle;rounded=0;orthogonalLoop=1;jettySize=auto;html=1;" edge="1" parent="1" source="pgJWZQ8p6a49kTPKWPUg-40" target="pgJWZQ8p6a49kTPKWPUg-45">
          <mxGeometry relative="1" as="geometry" />
        </mxCell>
        <mxCell id="pgJWZQ8p6a49kTPKWPUg-40" value="&lt;div style=&quot;text-align: center;&quot;&gt;&lt;span style=&quot;background-color: initial;&quot;&gt;&lt;u&gt;&lt;b&gt;customer&lt;/b&gt;&lt;/u&gt;&lt;/span&gt;&lt;/div&gt;&lt;div style=&quot;&quot;&gt;&lt;ul&gt;&lt;li&gt;&lt;span style=&quot;background-color: initial;&quot;&gt;customer_id&lt;/span&gt;&lt;/li&gt;&lt;li&gt;&lt;span style=&quot;background-color: initial;&quot;&gt;customer_first_name&lt;/span&gt;&lt;/li&gt;&lt;li&gt;&lt;span style=&quot;background-color: initial;&quot;&gt;customer_last_name&lt;/span&gt;&lt;/li&gt;&lt;li&gt;&lt;span style=&quot;background-color: initial;&quot;&gt;customer_postal_code&lt;/span&gt;&lt;/li&gt;&lt;/ul&gt;&lt;/div&gt;&lt;div style=&quot;text-align: center;&quot;&gt;&lt;span style=&quot;background-color: initial;&quot;&gt;&lt;br&gt;&lt;/span&gt;&lt;/div&gt;&lt;div style=&quot;text-align: center;&quot;&gt;&lt;span style=&quot;background-color: initial;&quot;&gt;&lt;br&gt;&lt;/span&gt;&lt;/div&gt;&lt;div&gt;&lt;br&gt;&lt;/div&gt;" style="verticalAlign=top;align=left;overflow=fill;html=1;whiteSpace=wrap;" vertex="1" parent="1">
          <mxGeometry x="600" y="150" width="180" height="93" as="geometry" />
        </mxCell>
        <mxCell id="pgJWZQ8p6a49kTPKWPUg-45" value="&lt;b&gt;&lt;u&gt;customer_purchases&lt;/u&gt;&lt;/b&gt;&lt;div&gt;&lt;ul&gt;&lt;li style=&quot;text-align: left;&quot;&gt;product_id&lt;/li&gt;&lt;li style=&quot;text-align: left;&quot;&gt;vendor_id&lt;/li&gt;&lt;li style=&quot;text-align: left;&quot;&gt;market_date&lt;/li&gt;&lt;li style=&quot;text-align: left;&quot;&gt;customer_id&lt;/li&gt;&lt;li style=&quot;text-align: left;&quot;&gt;quantity&lt;/li&gt;&lt;li style=&quot;text-align: left;&quot;&gt;cost_to_customer_per_qty&lt;/li&gt;&lt;li style=&quot;text-align: left;&quot;&gt;transaction_time&lt;/li&gt;&lt;/ul&gt;&lt;/div&gt;" style="verticalAlign=top;align=center;overflow=fill;html=1;whiteSpace=wrap;" vertex="1" parent="1">
          <mxGeometry x="290" y="127" width="219" height="139" as="geometry" />
        </mxCell>
        <mxCell id="pgJWZQ8p6a49kTPKWPUg-46" value="&lt;p style=&quot;margin:0px;margin-top:4px;text-align:center;text-decoration:underline;&quot;&gt;&lt;b&gt;vendor&lt;/b&gt;&lt;/p&gt;&lt;p style=&quot;margin: 4px 0px 0px; text-align: center;&quot;&gt;&lt;/p&gt;&lt;ul style=&quot;&quot;&gt;&lt;li style=&quot;&quot;&gt;vendor_id&lt;/li&gt;&lt;li style=&quot;&quot;&gt;vendor_name&lt;/li&gt;&lt;li style=&quot;&quot;&gt;vendor_type&lt;/li&gt;&lt;li style=&quot;&quot;&gt;vendor_owner_first_name&lt;/li&gt;&lt;li&gt;vendor_owner_last_name&lt;/li&gt;&lt;/ul&gt;&lt;p&gt;&lt;/p&gt;" style="verticalAlign=top;align=left;overflow=fill;html=1;whiteSpace=wrap;" vertex="1" parent="1">
          <mxGeometry x="180" y="350" width="200.5" height="130" as="geometry" />
        </mxCell>
        <mxCell id="pgJWZQ8p6a49kTPKWPUg-47" value="&lt;p style=&quot;margin:0px;margin-top:4px;text-align:center;text-decoration:underline;&quot;&gt;&lt;b&gt;vendor_inventory&lt;/b&gt;&lt;/p&gt;&lt;p style=&quot;margin:0px;margin-top:4px;text-align:center;text-decoration:underline;&quot;&gt;&lt;/p&gt;&lt;ul&gt;&lt;li&gt;market_date&lt;/li&gt;&lt;li&gt;quantity&lt;/li&gt;&lt;li&gt;vendor_id&lt;/li&gt;&lt;li&gt;product_id&lt;/li&gt;&lt;li&gt;original_price&lt;/li&gt;&lt;/ul&gt;&lt;p&gt;&lt;/p&gt;" style="verticalAlign=top;align=left;overflow=fill;html=1;whiteSpace=wrap;" vertex="1" parent="1">
          <mxGeometry x="560" y="330" width="200" height="130" as="geometry" />
        </mxCell>
        <mxCell id="pgJWZQ8p6a49kTPKWPUg-57" value="1" style="text;html=1;align=center;verticalAlign=middle;whiteSpace=wrap;rounded=0;" vertex="1" parent="1">
          <mxGeometry x="590" y="170" width="10" height="30" as="geometry" />
        </mxCell>
        <mxCell id="pgJWZQ8p6a49kTPKWPUg-58" value="1" style="text;html=1;align=center;verticalAlign=middle;whiteSpace=wrap;rounded=0;" vertex="1" parent="1">
          <mxGeometry x="380.5" y="440" width="10" height="30" as="geometry" />
        </mxCell>
        <mxCell id="pgJWZQ8p6a49kTPKWPUg-59" value="1" style="text;html=1;align=center;verticalAlign=middle;whiteSpace=wrap;rounded=0;" vertex="1" parent="1">
          <mxGeometry x="210" y="330" width="10" height="20" as="geometry" />
        </mxCell>
        <mxCell id="pgJWZQ8p6a49kTPKWPUg-69" value="" style="curved=1;endArrow=classic;html=1;rounded=0;entryX=-0.012;entryY=0.415;entryDx=0;entryDy=0;entryPerimeter=0;exitX=0.998;exitY=0.846;exitDx=0;exitDy=0;exitPerimeter=0;" edge="1" parent="1" source="pgJWZQ8p6a49kTPKWPUg-46" target="pgJWZQ8p6a49kTPKWPUg-47">
          <mxGeometry width="50" height="50" relative="1" as="geometry">
            <mxPoint x="390.5" y="460" as="sourcePoint" />
            <mxPoint x="440.5" y="410" as="targetPoint" />
            <Array as="points">
              <mxPoint x="440.5" y="460" />
              <mxPoint x="390.5" y="410" />
            </Array>
          </mxGeometry>
        </mxCell>
        <mxCell id="pgJWZQ8p6a49kTPKWPUg-70" value="" style="curved=1;endArrow=classic;html=1;rounded=0;" edge="1" parent="1">
          <mxGeometry width="50" height="50" relative="1" as="geometry">
            <mxPoint x="210" y="350" as="sourcePoint" />
            <mxPoint x="300" y="270" as="targetPoint" />
            <Array as="points">
              <mxPoint x="260" y="350" />
              <mxPoint x="200" y="310" />
              <mxPoint x="210" y="300" />
            </Array>
          </mxGeometry>
        </mxCell>
        <mxCell id="pgJWZQ8p6a49kTPKWPUg-71" value="Text" style="text;html=1;align=center;verticalAlign=middle;whiteSpace=wrap;rounded=0;" vertex="1" parent="1">
          <mxGeometry x="580" y="320" width="60" height="30" as="geometry" />
        </mxCell>
        <mxCell id="pgJWZQ8p6a49kTPKWPUg-72" value="&lt;font style=&quot;font-size: 16px;&quot;&gt;&lt;b&gt;farmers market logical model (partial)&lt;/b&gt;&lt;/font&gt;" style="text;html=1;align=center;verticalAlign=middle;whiteSpace=wrap;rounded=0;" vertex="1" parent="1">
          <mxGeometry x="370" y="40" width="330" height="70" as="geometry" />
        </mxCell>
        <mxCell id="pgJWZQ8p6a49kTPKWPUg-73" value="inf." style="text;html=1;align=center;verticalAlign=middle;whiteSpace=wrap;rounded=0;" vertex="1" parent="1">
          <mxGeometry x="530" y="360" width="30" height="20" as="geometry" />
        </mxCell>
        <mxCell id="pgJWZQ8p6a49kTPKWPUg-74" value="inf." style="text;html=1;align=center;verticalAlign=middle;whiteSpace=wrap;rounded=0;" vertex="1" parent="1">
          <mxGeometry x="520" y="180" width="30" height="20" as="geometry" />
        </mxCell>
        <mxCell id="pgJWZQ8p6a49kTPKWPUg-75" value="inf." style="text;html=1;align=center;verticalAlign=middle;whiteSpace=wrap;rounded=0;" vertex="1" parent="1">
          <mxGeometry x="270" y="260" width="30" height="20" as="geometry" />
        </mxCell>
      </root>
    </mxGraphModel>
  </diagram>
</mxfile>
